<svg width="38" height="43" viewBox="0 0 38 43" fill="none" xmlns="http://www.w3.org/2000/svg">
<path d="M12.9031 21.0261C12.7785 20.9015 12.7086 20.7327 12.7086 20.5566C12.7086 20.3805 12.7785 20.2116 12.9031 20.0871L17.5971 15.3961C18.0263 14.9558 18.5387 14.6051 19.1046 14.3644C19.6704 14.1236 20.2784 13.9977 20.8933 13.9937C21.5082 13.9898 22.1178 14.108 22.6867 14.3415C23.2555 14.575 23.7724 14.9191 24.2072 15.3539C24.6421 15.7887 24.9863 16.3055 25.2198 16.8743C25.4534 17.4431 25.5717 18.0527 25.5679 18.6676C25.564 19.2825 25.4382 19.8905 25.1975 20.4564C24.9569 21.0223 24.6063 21.5347 24.1661 21.9641L18.0661 28.0641C17.4411 28.6734 16.6012 29.012 15.7284 29.0064C14.8555 29.0008 14.02 28.6515 13.403 28.0342C12.7859 27.4168 12.4369 26.5812 12.4317 25.7083C12.4265 24.8355 12.7654 23.9957 13.3751 23.3711L18.5361 18.2101C18.911 17.8441 19.4151 17.6406 19.939 17.6438C20.4629 17.647 20.9645 17.8567 21.3349 18.2272C21.7053 18.5978 21.9147 19.0994 21.9178 19.6233C21.9208 20.1473 21.7172 20.6513 21.3511 21.0261L17.5971 24.7791C17.4727 24.9034 17.304 24.9733 17.1281 24.9733C16.9521 24.9733 16.7834 24.9034 16.6591 24.7791C16.5347 24.6547 16.4648 24.486 16.4648 24.3101C16.4648 24.1342 16.5347 23.9654 16.6591 23.8411L20.4121 20.0871C20.4736 20.0255 20.5225 19.9524 20.5558 19.8719C20.5892 19.7914 20.6063 19.7052 20.6063 19.6181C20.6063 19.531 20.5892 19.4447 20.5558 19.3642C20.5225 19.2838 20.4736 19.2107 20.4121 19.1491C20.3505 19.0875 20.2773 19.0386 20.1969 19.0053C20.1164 18.972 20.0302 18.9548 19.9431 18.9548C19.856 18.9548 19.7697 18.972 19.6892 19.0053C19.6088 19.0386 19.5356 19.0875 19.4741 19.1491L14.3131 24.3101C13.9398 24.6834 13.73 25.1896 13.73 25.7176C13.73 25.979 13.7815 26.2378 13.8816 26.4793C13.9816 26.7208 14.1282 26.9402 14.3131 27.1251C14.4979 27.3099 14.7173 27.4565 14.9588 27.5565C15.2003 27.6566 15.4592 27.7081 15.7206 27.7081C16.2485 27.7081 16.7548 27.4984 17.1281 27.1251L23.2281 21.0251C23.5483 20.7198 23.8042 20.3535 23.9808 19.9478C24.1574 19.5421 24.2511 19.1052 24.2563 18.6628C24.2615 18.2204 24.1782 17.7814 24.0113 17.3716C23.8443 16.9619 23.5971 16.5897 23.2842 16.2769C22.9713 15.9641 22.599 15.717 22.1891 15.5503C21.7793 15.3835 21.3403 15.3004 20.8979 15.3058C20.4555 15.3112 20.0186 15.4051 19.613 15.5818C19.2074 15.7586 18.8412 16.0147 18.5361 16.3351L13.8441 21.0261C13.7196 21.1503 13.5509 21.22 13.3751 21.22C13.1992 21.22 13.0305 21.1503 12.9061 21.0261" fill="#FFED9A"/>
</svg>
