<svg width="43" height="42" viewBox="0 0 43 42" fill="none" xmlns="http://www.w3.org/2000/svg">
<path d="M21.9551 30C16.9844 30 12.9551 25.9707 12.9551 21C12.9551 16.0293 16.9844 12 21.9551 12C26.9258 12 30.9551 16.0293 30.9551 21C30.9551 25.9707 26.9258 30 21.9551 30ZM21.9551 28.2C23.8646 28.2 25.696 27.4414 27.0462 26.0912C28.3965 24.7409 29.1551 22.9096 29.1551 21C29.1551 19.0904 28.3965 17.2591 27.0462 15.9088C25.696 14.5586 23.8646 13.8 21.9551 13.8C20.0455 13.8 18.2142 14.5586 16.8639 15.9088C15.5136 17.2591 14.7551 19.0904 14.7551 21C14.7551 22.9096 15.5136 24.7409 16.8639 26.0912C18.2142 27.4414 20.0455 28.2 21.9551 28.2ZM21.0551 16.5H22.8551V18.3H21.0551V16.5ZM21.0551 20.1H22.8551V25.5H21.0551V20.1Z" fill="#343433"/>
</svg>
