<svg width="216" height="195" viewBox="0 0 216 195" fill="none" xmlns="http://www.w3.org/2000/svg">
<rect width="11.9337" height="11.9337" fill="url(#paint0_linear_12_161)"/>
<rect y="20.2873" width="11.9337" height="11.9337" fill="url(#paint1_linear_12_161)"/>
<rect y="40.5746" width="11.9337" height="11.9337" fill="url(#paint2_linear_12_161)"/>
<rect y="60.8619" width="11.9337" height="11.9337" fill="url(#paint3_linear_12_161)"/>
<rect y="81.1492" width="11.9337" height="11.9337" fill="url(#paint4_linear_12_161)"/>
<rect y="101.436" width="11.9337" height="11.9337" fill="url(#paint5_linear_12_161)"/>
<rect y="121.724" width="11.9337" height="11.9337" fill="url(#paint6_linear_12_161)"/>
<rect y="142.011" width="11.9337" height="11.9337" fill="url(#paint7_linear_12_161)"/>
<rect y="162.298" width="11.9337" height="11.9337" fill="url(#paint8_linear_12_161)"/>
<rect y="182.586" width="11.9337" height="11.9337" fill="url(#paint9_linear_12_161)"/>
<rect x="22.6741" width="11.9337" height="11.9337" fill="url(#paint10_linear_12_161)"/>
<rect x="22.6741" y="20.2873" width="11.9337" height="11.9337" fill="url(#paint11_linear_12_161)"/>
<rect x="22.6741" y="40.5746" width="11.9337" height="11.9337" fill="url(#paint12_linear_12_161)"/>
<rect x="22.6741" y="60.8619" width="11.9337" height="11.9337" fill="url(#paint13_linear_12_161)"/>
<rect x="22.6741" y="81.1492" width="11.9337" height="11.9337" fill="url(#paint14_linear_12_161)"/>
<rect x="22.6741" y="101.436" width="11.9337" height="11.9337" fill="url(#paint15_linear_12_161)"/>
<rect x="22.6741" y="121.724" width="11.9337" height="11.9337" fill="url(#paint16_linear_12_161)"/>
<rect x="22.6741" y="142.011" width="11.9337" height="11.9337" fill="url(#paint17_linear_12_161)"/>
<rect x="22.6741" y="162.298" width="11.9337" height="11.9337" fill="url(#paint18_linear_12_161)"/>
<rect x="22.6741" y="182.586" width="11.9337" height="11.9337" fill="url(#paint19_linear_12_161)"/>
<rect x="45.348" width="11.9337" height="11.9337" fill="url(#paint20_linear_12_161)"/>
<rect x="45.348" y="20.2873" width="11.9337" height="11.9337" fill="url(#paint21_linear_12_161)"/>
<rect x="45.348" y="40.5746" width="11.9337" height="11.9337" fill="url(#paint22_linear_12_161)"/>
<rect x="45.348" y="60.8619" width="11.9337" height="11.9337" fill="url(#paint23_linear_12_161)"/>
<rect x="45.348" y="81.1492" width="11.9337" height="11.9337" fill="url(#paint24_linear_12_161)"/>
<rect x="45.348" y="101.436" width="11.9337" height="11.9337" fill="url(#paint25_linear_12_161)"/>
<rect x="45.348" y="121.724" width="11.9337" height="11.9337" fill="url(#paint26_linear_12_161)"/>
<rect x="45.348" y="142.011" width="11.9337" height="11.9337" fill="url(#paint27_linear_12_161)"/>
<rect x="45.348" y="162.298" width="11.9337" height="11.9337" fill="url(#paint28_linear_12_161)"/>
<rect x="45.348" y="182.586" width="11.9337" height="11.9337" fill="url(#paint29_linear_12_161)"/>
<rect x="68.0221" width="11.9337" height="11.9337" fill="url(#paint30_linear_12_161)"/>
<rect x="68.0221" y="20.2873" width="11.9337" height="11.9337" fill="url(#paint31_linear_12_161)"/>
<rect x="68.0221" y="40.5746" width="11.9337" height="11.9337" fill="url(#paint32_linear_12_161)"/>
<rect x="68.0221" y="60.8619" width="11.9337" height="11.9337" fill="url(#paint33_linear_12_161)"/>
<rect x="68.0221" y="81.1492" width="11.9337" height="11.9337" fill="url(#paint34_linear_12_161)"/>
<rect x="68.0221" y="101.436" width="11.9337" height="11.9337" fill="url(#paint35_linear_12_161)"/>
<rect x="68.0221" y="121.724" width="11.9337" height="11.9337" fill="url(#paint36_linear_12_161)"/>
<rect x="68.0221" y="142.011" width="11.9337" height="11.9337" fill="url(#paint37_linear_12_161)"/>
<rect x="68.0221" y="162.298" width="11.9337" height="11.9337" fill="url(#paint38_linear_12_161)"/>
<rect x="68.0221" y="182.586" width="11.9337" height="11.9337" fill="url(#paint39_linear_12_161)"/>
<rect x="90.6962" width="11.9337" height="11.9337" fill="url(#paint40_linear_12_161)"/>
<rect x="90.6962" y="20.2873" width="11.9337" height="11.9337" fill="url(#paint41_linear_12_161)"/>
<rect x="90.6962" y="40.5746" width="11.9337" height="11.9337" fill="url(#paint42_linear_12_161)"/>
<rect x="90.6962" y="60.8619" width="11.9337" height="11.9337" fill="url(#paint43_linear_12_161)"/>
<rect x="90.6962" y="81.1492" width="11.9337" height="11.9337" fill="url(#paint44_linear_12_161)"/>
<rect x="90.6962" y="101.436" width="11.9337" height="11.9337" fill="url(#paint45_linear_12_161)"/>
<rect x="90.6962" y="121.724" width="11.9337" height="11.9337" fill="url(#paint46_linear_12_161)"/>
<rect x="90.6962" y="142.011" width="11.9337" height="11.9337" fill="url(#paint47_linear_12_161)"/>
<rect x="90.6962" y="162.298" width="11.9337" height="11.9337" fill="url(#paint48_linear_12_161)"/>
<rect x="90.6962" y="182.586" width="11.9337" height="11.9337" fill="url(#paint49_linear_12_161)"/>
<rect x="113.37" width="11.9337" height="11.9337" fill="url(#paint50_linear_12_161)"/>
<rect x="113.37" y="20.2873" width="11.9337" height="11.9337" fill="url(#paint51_linear_12_161)"/>
<rect x="113.37" y="40.5746" width="11.9337" height="11.9337" fill="url(#paint52_linear_12_161)"/>
<rect x="113.37" y="60.8619" width="11.9337" height="11.9337" fill="url(#paint53_linear_12_161)"/>
<rect x="113.37" y="81.1492" width="11.9337" height="11.9337" fill="url(#paint54_linear_12_161)"/>
<rect x="113.37" y="101.436" width="11.9337" height="11.9337" fill="url(#paint55_linear_12_161)"/>
<rect x="113.37" y="121.724" width="11.9337" height="11.9337" fill="url(#paint56_linear_12_161)"/>
<rect x="113.37" y="142.011" width="11.9337" height="11.9337" fill="url(#paint57_linear_12_161)"/>
<rect x="113.37" y="162.298" width="11.9337" height="11.9337" fill="url(#paint58_linear_12_161)"/>
<rect x="113.37" y="182.586" width="11.9337" height="11.9337" fill="url(#paint59_linear_12_161)"/>
<rect x="136.044" width="11.9337" height="11.9337" fill="url(#paint60_linear_12_161)"/>
<rect x="136.044" y="20.2873" width="11.9337" height="11.9337" fill="url(#paint61_linear_12_161)"/>
<rect x="136.044" y="40.5746" width="11.9337" height="11.9337" fill="url(#paint62_linear_12_161)"/>
<rect x="136.044" y="60.8619" width="11.9337" height="11.9337" fill="url(#paint63_linear_12_161)"/>
<rect x="136.044" y="81.1492" width="11.9337" height="11.9337" fill="url(#paint64_linear_12_161)"/>
<rect x="136.044" y="101.436" width="11.9337" height="11.9337" fill="url(#paint65_linear_12_161)"/>
<rect x="136.044" y="121.724" width="11.9337" height="11.9337" fill="url(#paint66_linear_12_161)"/>
<rect x="136.044" y="142.011" width="11.9337" height="11.9337" fill="url(#paint67_linear_12_161)"/>
<rect x="136.044" y="162.298" width="11.9337" height="11.9337" fill="url(#paint68_linear_12_161)"/>
<rect x="136.044" y="182.586" width="11.9337" height="11.9337" fill="url(#paint69_linear_12_161)"/>
<rect x="158.718" width="11.9337" height="11.9337" fill="url(#paint70_linear_12_161)"/>
<rect x="158.718" y="20.2873" width="11.9337" height="11.9337" fill="url(#paint71_linear_12_161)"/>
<rect x="158.718" y="40.5746" width="11.9337" height="11.9337" fill="url(#paint72_linear_12_161)"/>
<rect x="158.718" y="60.8619" width="11.9337" height="11.9337" fill="url(#paint73_linear_12_161)"/>
<rect x="158.718" y="81.1492" width="11.9337" height="11.9337" fill="url(#paint74_linear_12_161)"/>
<rect x="158.718" y="101.436" width="11.9337" height="11.9337" fill="url(#paint75_linear_12_161)"/>
<rect x="158.718" y="121.724" width="11.9337" height="11.9337" fill="url(#paint76_linear_12_161)"/>
<rect x="158.718" y="142.011" width="11.9337" height="11.9337" fill="url(#paint77_linear_12_161)"/>
<rect x="158.718" y="162.298" width="11.9337" height="11.9337" fill="url(#paint78_linear_12_161)"/>
<rect x="158.718" y="182.586" width="11.9337" height="11.9337" fill="url(#paint79_linear_12_161)"/>
<rect x="181.392" width="11.9337" height="11.9337" fill="url(#paint80_linear_12_161)"/>
<rect x="181.392" y="20.2873" width="11.9337" height="11.9337" fill="url(#paint81_linear_12_161)"/>
<rect x="181.392" y="40.5746" width="11.9337" height="11.9337" fill="url(#paint82_linear_12_161)"/>
<rect x="181.392" y="60.8619" width="11.9337" height="11.9337" fill="url(#paint83_linear_12_161)"/>
<rect x="181.392" y="81.1492" width="11.9337" height="11.9337" fill="url(#paint84_linear_12_161)"/>
<rect x="181.392" y="101.436" width="11.9337" height="11.9337" fill="url(#paint85_linear_12_161)"/>
<rect x="181.392" y="121.724" width="11.9337" height="11.9337" fill="url(#paint86_linear_12_161)"/>
<rect x="181.392" y="142.011" width="11.9337" height="11.9337" fill="url(#paint87_linear_12_161)"/>
<rect x="181.392" y="162.298" width="11.9337" height="11.9337" fill="url(#paint88_linear_12_161)"/>
<rect x="181.392" y="182.586" width="11.9337" height="11.9337" fill="url(#paint89_linear_12_161)"/>
<rect x="204.066" width="11.9337" height="11.9337" fill="url(#paint90_linear_12_161)"/>
<rect x="204.066" y="20.2873" width="11.9337" height="11.9337" fill="url(#paint91_linear_12_161)"/>
<rect x="204.066" y="40.5746" width="11.9337" height="11.9337" fill="url(#paint92_linear_12_161)"/>
<rect x="204.066" y="60.8619" width="11.9337" height="11.9337" fill="url(#paint93_linear_12_161)"/>
<rect x="204.066" y="81.1492" width="11.9337" height="11.9337" fill="url(#paint94_linear_12_161)"/>
<rect x="204.066" y="101.436" width="11.9337" height="11.9337" fill="url(#paint95_linear_12_161)"/>
<rect x="204.066" y="121.724" width="11.9337" height="11.9337" fill="url(#paint96_linear_12_161)"/>
<rect x="204.066" y="142.011" width="11.9337" height="11.9337" fill="url(#paint97_linear_12_161)"/>
<rect x="204.066" y="162.298" width="11.9337" height="11.9337" fill="url(#paint98_linear_12_161)"/>
<rect x="204.066" y="182.586" width="11.9337" height="11.9337" fill="url(#paint99_linear_12_161)"/>
<defs>
<linearGradient id="paint0_linear_12_161" x1="5.96685" y1="0" x2="5.96685" y2="11.9337" gradientUnits="userSpaceOnUse">
<stop stop-color="#FFD102"/>
<stop offset="1" stop-color="#F7971E"/>
</linearGradient>
<linearGradient id="paint1_linear_12_161" x1="5.96685" y1="20.2873" x2="5.96685" y2="32.221" gradientUnits="userSpaceOnUse">
<stop stop-color="#FFD102"/>
<stop offset="1" stop-color="#F7971E"/>
</linearGradient>
<linearGradient id="paint2_linear_12_161" x1="5.96685" y1="40.5746" x2="5.96685" y2="52.5083" gradientUnits="userSpaceOnUse">
<stop stop-color="#FFD102"/>
<stop offset="1" stop-color="#F7971E"/>
</linearGradient>
<linearGradient id="paint3_linear_12_161" x1="5.96685" y1="60.8619" x2="5.96685" y2="72.7956" gradientUnits="userSpaceOnUse">
<stop stop-color="#FFD102"/>
<stop offset="1" stop-color="#F7971E"/>
</linearGradient>
<linearGradient id="paint4_linear_12_161" x1="5.96685" y1="81.1492" x2="5.96685" y2="93.0829" gradientUnits="userSpaceOnUse">
<stop stop-color="#FFD102"/>
<stop offset="1" stop-color="#F7971E"/>
</linearGradient>
<linearGradient id="paint5_linear_12_161" x1="5.96685" y1="101.436" x2="5.96685" y2="113.37" gradientUnits="userSpaceOnUse">
<stop stop-color="#FFD102"/>
<stop offset="1" stop-color="#F7971E"/>
</linearGradient>
<linearGradient id="paint6_linear_12_161" x1="5.96685" y1="121.724" x2="5.96685" y2="133.657" gradientUnits="userSpaceOnUse">
<stop stop-color="#FFD102"/>
<stop offset="1" stop-color="#F7971E"/>
</linearGradient>
<linearGradient id="paint7_linear_12_161" x1="5.96685" y1="142.011" x2="5.96685" y2="153.945" gradientUnits="userSpaceOnUse">
<stop stop-color="#FFD102"/>
<stop offset="1" stop-color="#F7971E"/>
</linearGradient>
<linearGradient id="paint8_linear_12_161" x1="5.96685" y1="162.298" x2="5.96685" y2="174.232" gradientUnits="userSpaceOnUse">
<stop stop-color="#FFD102"/>
<stop offset="1" stop-color="#F7971E"/>
</linearGradient>
<linearGradient id="paint9_linear_12_161" x1="5.96685" y1="182.586" x2="5.96685" y2="194.519" gradientUnits="userSpaceOnUse">
<stop stop-color="#FFD102"/>
<stop offset="1" stop-color="#F7971E"/>
</linearGradient>
<linearGradient id="paint10_linear_12_161" x1="28.6409" y1="0" x2="28.6409" y2="11.9337" gradientUnits="userSpaceOnUse">
<stop stop-color="#FFD102"/>
<stop offset="1" stop-color="#F7971E"/>
</linearGradient>
<linearGradient id="paint11_linear_12_161" x1="28.6409" y1="20.2873" x2="28.6409" y2="32.221" gradientUnits="userSpaceOnUse">
<stop stop-color="#FFD102"/>
<stop offset="1" stop-color="#F7971E"/>
</linearGradient>
<linearGradient id="paint12_linear_12_161" x1="28.6409" y1="40.5746" x2="28.6409" y2="52.5083" gradientUnits="userSpaceOnUse">
<stop stop-color="#FFD102"/>
<stop offset="1" stop-color="#F7971E"/>
</linearGradient>
<linearGradient id="paint13_linear_12_161" x1="28.6409" y1="60.8619" x2="28.6409" y2="72.7956" gradientUnits="userSpaceOnUse">
<stop stop-color="#FFD102"/>
<stop offset="1" stop-color="#F7971E"/>
</linearGradient>
<linearGradient id="paint14_linear_12_161" x1="28.6409" y1="81.1492" x2="28.6409" y2="93.0829" gradientUnits="userSpaceOnUse">
<stop stop-color="#FFD102"/>
<stop offset="1" stop-color="#F7971E"/>
</linearGradient>
<linearGradient id="paint15_linear_12_161" x1="28.6409" y1="101.436" x2="28.6409" y2="113.37" gradientUnits="userSpaceOnUse">
<stop stop-color="#FFD102"/>
<stop offset="1" stop-color="#F7971E"/>
</linearGradient>
<linearGradient id="paint16_linear_12_161" x1="28.6409" y1="121.724" x2="28.6409" y2="133.657" gradientUnits="userSpaceOnUse">
<stop stop-color="#FFD102"/>
<stop offset="1" stop-color="#F7971E"/>
</linearGradient>
<linearGradient id="paint17_linear_12_161" x1="28.6409" y1="142.011" x2="28.6409" y2="153.945" gradientUnits="userSpaceOnUse">
<stop stop-color="#FFD102"/>
<stop offset="1" stop-color="#F7971E"/>
</linearGradient>
<linearGradient id="paint18_linear_12_161" x1="28.6409" y1="162.298" x2="28.6409" y2="174.232" gradientUnits="userSpaceOnUse">
<stop stop-color="#FFD102"/>
<stop offset="1" stop-color="#F7971E"/>
</linearGradient>
<linearGradient id="paint19_linear_12_161" x1="28.6409" y1="182.586" x2="28.6409" y2="194.519" gradientUnits="userSpaceOnUse">
<stop stop-color="#FFD102"/>
<stop offset="1" stop-color="#F7971E"/>
</linearGradient>
<linearGradient id="paint20_linear_12_161" x1="51.3149" y1="0" x2="51.3149" y2="11.9337" gradientUnits="userSpaceOnUse">
<stop stop-color="#FFD102"/>
<stop offset="1" stop-color="#F7971E"/>
</linearGradient>
<linearGradient id="paint21_linear_12_161" x1="51.3149" y1="20.2873" x2="51.3149" y2="32.221" gradientUnits="userSpaceOnUse">
<stop stop-color="#FFD102"/>
<stop offset="1" stop-color="#F7971E"/>
</linearGradient>
<linearGradient id="paint22_linear_12_161" x1="51.3149" y1="40.5746" x2="51.3149" y2="52.5083" gradientUnits="userSpaceOnUse">
<stop stop-color="#FFD102"/>
<stop offset="1" stop-color="#F7971E"/>
</linearGradient>
<linearGradient id="paint23_linear_12_161" x1="51.3149" y1="60.8619" x2="51.3149" y2="72.7956" gradientUnits="userSpaceOnUse">
<stop stop-color="#FFD102"/>
<stop offset="1" stop-color="#F7971E"/>
</linearGradient>
<linearGradient id="paint24_linear_12_161" x1="51.3149" y1="81.1492" x2="51.3149" y2="93.0829" gradientUnits="userSpaceOnUse">
<stop stop-color="#FFD102"/>
<stop offset="1" stop-color="#F7971E"/>
</linearGradient>
<linearGradient id="paint25_linear_12_161" x1="51.3149" y1="101.436" x2="51.3149" y2="113.37" gradientUnits="userSpaceOnUse">
<stop stop-color="#FFD102"/>
<stop offset="1" stop-color="#F7971E"/>
</linearGradient>
<linearGradient id="paint26_linear_12_161" x1="51.3149" y1="121.724" x2="51.3149" y2="133.657" gradientUnits="userSpaceOnUse">
<stop stop-color="#FFD102"/>
<stop offset="1" stop-color="#F7971E"/>
</linearGradient>
<linearGradient id="paint27_linear_12_161" x1="51.3149" y1="142.011" x2="51.3149" y2="153.945" gradientUnits="userSpaceOnUse">
<stop stop-color="#FFD102"/>
<stop offset="1" stop-color="#F7971E"/>
</linearGradient>
<linearGradient id="paint28_linear_12_161" x1="51.3149" y1="162.298" x2="51.3149" y2="174.232" gradientUnits="userSpaceOnUse">
<stop stop-color="#FFD102"/>
<stop offset="1" stop-color="#F7971E"/>
</linearGradient>
<linearGradient id="paint29_linear_12_161" x1="51.3149" y1="182.586" x2="51.3149" y2="194.519" gradientUnits="userSpaceOnUse">
<stop stop-color="#FFD102"/>
<stop offset="1" stop-color="#F7971E"/>
</linearGradient>
<linearGradient id="paint30_linear_12_161" x1="73.9889" y1="0" x2="73.9889" y2="11.9337" gradientUnits="userSpaceOnUse">
<stop stop-color="#FFD102"/>
<stop offset="1" stop-color="#F7971E"/>
</linearGradient>
<linearGradient id="paint31_linear_12_161" x1="73.9889" y1="20.2873" x2="73.9889" y2="32.221" gradientUnits="userSpaceOnUse">
<stop stop-color="#FFD102"/>
<stop offset="1" stop-color="#F7971E"/>
</linearGradient>
<linearGradient id="paint32_linear_12_161" x1="73.9889" y1="40.5746" x2="73.9889" y2="52.5083" gradientUnits="userSpaceOnUse">
<stop stop-color="#FFD102"/>
<stop offset="1" stop-color="#F7971E"/>
</linearGradient>
<linearGradient id="paint33_linear_12_161" x1="73.9889" y1="60.8619" x2="73.9889" y2="72.7956" gradientUnits="userSpaceOnUse">
<stop stop-color="#FFD102"/>
<stop offset="1" stop-color="#F7971E"/>
</linearGradient>
<linearGradient id="paint34_linear_12_161" x1="73.9889" y1="81.1492" x2="73.9889" y2="93.0829" gradientUnits="userSpaceOnUse">
<stop stop-color="#FFD102"/>
<stop offset="1" stop-color="#F7971E"/>
</linearGradient>
<linearGradient id="paint35_linear_12_161" x1="73.9889" y1="101.436" x2="73.9889" y2="113.37" gradientUnits="userSpaceOnUse">
<stop stop-color="#FFD102"/>
<stop offset="1" stop-color="#F7971E"/>
</linearGradient>
<linearGradient id="paint36_linear_12_161" x1="73.9889" y1="121.724" x2="73.9889" y2="133.657" gradientUnits="userSpaceOnUse">
<stop stop-color="#FFD102"/>
<stop offset="1" stop-color="#F7971E"/>
</linearGradient>
<linearGradient id="paint37_linear_12_161" x1="73.9889" y1="142.011" x2="73.9889" y2="153.945" gradientUnits="userSpaceOnUse">
<stop stop-color="#FFD102"/>
<stop offset="1" stop-color="#F7971E"/>
</linearGradient>
<linearGradient id="paint38_linear_12_161" x1="73.9889" y1="162.298" x2="73.9889" y2="174.232" gradientUnits="userSpaceOnUse">
<stop stop-color="#FFD102"/>
<stop offset="1" stop-color="#F7971E"/>
</linearGradient>
<linearGradient id="paint39_linear_12_161" x1="73.9889" y1="182.586" x2="73.9889" y2="194.519" gradientUnits="userSpaceOnUse">
<stop stop-color="#FFD102"/>
<stop offset="1" stop-color="#F7971E"/>
</linearGradient>
<linearGradient id="paint40_linear_12_161" x1="96.663" y1="0" x2="96.663" y2="11.9337" gradientUnits="userSpaceOnUse">
<stop stop-color="#FFD102"/>
<stop offset="1" stop-color="#F7971E"/>
</linearGradient>
<linearGradient id="paint41_linear_12_161" x1="96.663" y1="20.2873" x2="96.663" y2="32.221" gradientUnits="userSpaceOnUse">
<stop stop-color="#FFD102"/>
<stop offset="1" stop-color="#F7971E"/>
</linearGradient>
<linearGradient id="paint42_linear_12_161" x1="96.663" y1="40.5746" x2="96.663" y2="52.5083" gradientUnits="userSpaceOnUse">
<stop stop-color="#FFD102"/>
<stop offset="1" stop-color="#F7971E"/>
</linearGradient>
<linearGradient id="paint43_linear_12_161" x1="96.663" y1="60.8619" x2="96.663" y2="72.7956" gradientUnits="userSpaceOnUse">
<stop stop-color="#FFD102"/>
<stop offset="1" stop-color="#F7971E"/>
</linearGradient>
<linearGradient id="paint44_linear_12_161" x1="96.663" y1="81.1492" x2="96.663" y2="93.0829" gradientUnits="userSpaceOnUse">
<stop stop-color="#FFD102"/>
<stop offset="1" stop-color="#F7971E"/>
</linearGradient>
<linearGradient id="paint45_linear_12_161" x1="96.663" y1="101.436" x2="96.663" y2="113.37" gradientUnits="userSpaceOnUse">
<stop stop-color="#FFD102"/>
<stop offset="1" stop-color="#F7971E"/>
</linearGradient>
<linearGradient id="paint46_linear_12_161" x1="96.663" y1="121.724" x2="96.663" y2="133.657" gradientUnits="userSpaceOnUse">
<stop stop-color="#FFD102"/>
<stop offset="1" stop-color="#F7971E"/>
</linearGradient>
<linearGradient id="paint47_linear_12_161" x1="96.663" y1="142.011" x2="96.663" y2="153.945" gradientUnits="userSpaceOnUse">
<stop stop-color="#FFD102"/>
<stop offset="1" stop-color="#F7971E"/>
</linearGradient>
<linearGradient id="paint48_linear_12_161" x1="96.663" y1="162.298" x2="96.663" y2="174.232" gradientUnits="userSpaceOnUse">
<stop stop-color="#FFD102"/>
<stop offset="1" stop-color="#F7971E"/>
</linearGradient>
<linearGradient id="paint49_linear_12_161" x1="96.663" y1="182.586" x2="96.663" y2="194.519" gradientUnits="userSpaceOnUse">
<stop stop-color="#FFD102"/>
<stop offset="1" stop-color="#F7971E"/>
</linearGradient>
<linearGradient id="paint50_linear_12_161" x1="119.337" y1="0" x2="119.337" y2="11.9337" gradientUnits="userSpaceOnUse">
<stop stop-color="#FFD102"/>
<stop offset="1" stop-color="#F7971E"/>
</linearGradient>
<linearGradient id="paint51_linear_12_161" x1="119.337" y1="20.2873" x2="119.337" y2="32.221" gradientUnits="userSpaceOnUse">
<stop stop-color="#FFD102"/>
<stop offset="1" stop-color="#F7971E"/>
</linearGradient>
<linearGradient id="paint52_linear_12_161" x1="119.337" y1="40.5746" x2="119.337" y2="52.5083" gradientUnits="userSpaceOnUse">
<stop stop-color="#FFD102"/>
<stop offset="1" stop-color="#F7971E"/>
</linearGradient>
<linearGradient id="paint53_linear_12_161" x1="119.337" y1="60.8619" x2="119.337" y2="72.7956" gradientUnits="userSpaceOnUse">
<stop stop-color="#FFD102"/>
<stop offset="1" stop-color="#F7971E"/>
</linearGradient>
<linearGradient id="paint54_linear_12_161" x1="119.337" y1="81.1492" x2="119.337" y2="93.0829" gradientUnits="userSpaceOnUse">
<stop stop-color="#FFD102"/>
<stop offset="1" stop-color="#F7971E"/>
</linearGradient>
<linearGradient id="paint55_linear_12_161" x1="119.337" y1="101.436" x2="119.337" y2="113.37" gradientUnits="userSpaceOnUse">
<stop stop-color="#FFD102"/>
<stop offset="1" stop-color="#F7971E"/>
</linearGradient>
<linearGradient id="paint56_linear_12_161" x1="119.337" y1="121.724" x2="119.337" y2="133.657" gradientUnits="userSpaceOnUse">
<stop stop-color="#FFD102"/>
<stop offset="1" stop-color="#F7971E"/>
</linearGradient>
<linearGradient id="paint57_linear_12_161" x1="119.337" y1="142.011" x2="119.337" y2="153.945" gradientUnits="userSpaceOnUse">
<stop stop-color="#FFD102"/>
<stop offset="1" stop-color="#F7971E"/>
</linearGradient>
<linearGradient id="paint58_linear_12_161" x1="119.337" y1="162.298" x2="119.337" y2="174.232" gradientUnits="userSpaceOnUse">
<stop stop-color="#FFD102"/>
<stop offset="1" stop-color="#F7971E"/>
</linearGradient>
<linearGradient id="paint59_linear_12_161" x1="119.337" y1="182.586" x2="119.337" y2="194.519" gradientUnits="userSpaceOnUse">
<stop stop-color="#FFD102"/>
<stop offset="1" stop-color="#F7971E"/>
</linearGradient>
<linearGradient id="paint60_linear_12_161" x1="142.011" y1="0" x2="142.011" y2="11.9337" gradientUnits="userSpaceOnUse">
<stop stop-color="#FFD102"/>
<stop offset="1" stop-color="#F7971E"/>
</linearGradient>
<linearGradient id="paint61_linear_12_161" x1="142.011" y1="20.2873" x2="142.011" y2="32.221" gradientUnits="userSpaceOnUse">
<stop stop-color="#FFD102"/>
<stop offset="1" stop-color="#F7971E"/>
</linearGradient>
<linearGradient id="paint62_linear_12_161" x1="142.011" y1="40.5746" x2="142.011" y2="52.5083" gradientUnits="userSpaceOnUse">
<stop stop-color="#FFD102"/>
<stop offset="1" stop-color="#F7971E"/>
</linearGradient>
<linearGradient id="paint63_linear_12_161" x1="142.011" y1="60.8619" x2="142.011" y2="72.7956" gradientUnits="userSpaceOnUse">
<stop stop-color="#FFD102"/>
<stop offset="1" stop-color="#F7971E"/>
</linearGradient>
<linearGradient id="paint64_linear_12_161" x1="142.011" y1="81.1492" x2="142.011" y2="93.0829" gradientUnits="userSpaceOnUse">
<stop stop-color="#FFD102"/>
<stop offset="1" stop-color="#F7971E"/>
</linearGradient>
<linearGradient id="paint65_linear_12_161" x1="142.011" y1="101.436" x2="142.011" y2="113.37" gradientUnits="userSpaceOnUse">
<stop stop-color="#FFD102"/>
<stop offset="1" stop-color="#F7971E"/>
</linearGradient>
<linearGradient id="paint66_linear_12_161" x1="142.011" y1="121.724" x2="142.011" y2="133.657" gradientUnits="userSpaceOnUse">
<stop stop-color="#FFD102"/>
<stop offset="1" stop-color="#F7971E"/>
</linearGradient>
<linearGradient id="paint67_linear_12_161" x1="142.011" y1="142.011" x2="142.011" y2="153.945" gradientUnits="userSpaceOnUse">
<stop stop-color="#FFD102"/>
<stop offset="1" stop-color="#F7971E"/>
</linearGradient>
<linearGradient id="paint68_linear_12_161" x1="142.011" y1="162.298" x2="142.011" y2="174.232" gradientUnits="userSpaceOnUse">
<stop stop-color="#FFD102"/>
<stop offset="1" stop-color="#F7971E"/>
</linearGradient>
<linearGradient id="paint69_linear_12_161" x1="142.011" y1="182.586" x2="142.011" y2="194.519" gradientUnits="userSpaceOnUse">
<stop stop-color="#FFD102"/>
<stop offset="1" stop-color="#F7971E"/>
</linearGradient>
<linearGradient id="paint70_linear_12_161" x1="164.685" y1="0" x2="164.685" y2="11.9337" gradientUnits="userSpaceOnUse">
<stop stop-color="#FFD102"/>
<stop offset="1" stop-color="#F7971E"/>
</linearGradient>
<linearGradient id="paint71_linear_12_161" x1="164.685" y1="20.2873" x2="164.685" y2="32.221" gradientUnits="userSpaceOnUse">
<stop stop-color="#FFD102"/>
<stop offset="1" stop-color="#F7971E"/>
</linearGradient>
<linearGradient id="paint72_linear_12_161" x1="164.685" y1="40.5746" x2="164.685" y2="52.5083" gradientUnits="userSpaceOnUse">
<stop stop-color="#FFD102"/>
<stop offset="1" stop-color="#F7971E"/>
</linearGradient>
<linearGradient id="paint73_linear_12_161" x1="164.685" y1="60.8619" x2="164.685" y2="72.7956" gradientUnits="userSpaceOnUse">
<stop stop-color="#FFD102"/>
<stop offset="1" stop-color="#F7971E"/>
</linearGradient>
<linearGradient id="paint74_linear_12_161" x1="164.685" y1="81.1492" x2="164.685" y2="93.0829" gradientUnits="userSpaceOnUse">
<stop stop-color="#FFD102"/>
<stop offset="1" stop-color="#F7971E"/>
</linearGradient>
<linearGradient id="paint75_linear_12_161" x1="164.685" y1="101.436" x2="164.685" y2="113.37" gradientUnits="userSpaceOnUse">
<stop stop-color="#FFD102"/>
<stop offset="1" stop-color="#F7971E"/>
</linearGradient>
<linearGradient id="paint76_linear_12_161" x1="164.685" y1="121.724" x2="164.685" y2="133.657" gradientUnits="userSpaceOnUse">
<stop stop-color="#FFD102"/>
<stop offset="1" stop-color="#F7971E"/>
</linearGradient>
<linearGradient id="paint77_linear_12_161" x1="164.685" y1="142.011" x2="164.685" y2="153.945" gradientUnits="userSpaceOnUse">
<stop stop-color="#FFD102"/>
<stop offset="1" stop-color="#F7971E"/>
</linearGradient>
<linearGradient id="paint78_linear_12_161" x1="164.685" y1="162.298" x2="164.685" y2="174.232" gradientUnits="userSpaceOnUse">
<stop stop-color="#FFD102"/>
<stop offset="1" stop-color="#F7971E"/>
</linearGradient>
<linearGradient id="paint79_linear_12_161" x1="164.685" y1="182.586" x2="164.685" y2="194.519" gradientUnits="userSpaceOnUse">
<stop stop-color="#FFD102"/>
<stop offset="1" stop-color="#F7971E"/>
</linearGradient>
<linearGradient id="paint80_linear_12_161" x1="187.359" y1="0" x2="187.359" y2="11.9337" gradientUnits="userSpaceOnUse">
<stop stop-color="#FFD102"/>
<stop offset="1" stop-color="#F7971E"/>
</linearGradient>
<linearGradient id="paint81_linear_12_161" x1="187.359" y1="20.2873" x2="187.359" y2="32.221" gradientUnits="userSpaceOnUse">
<stop stop-color="#FFD102"/>
<stop offset="1" stop-color="#F7971E"/>
</linearGradient>
<linearGradient id="paint82_linear_12_161" x1="187.359" y1="40.5746" x2="187.359" y2="52.5083" gradientUnits="userSpaceOnUse">
<stop stop-color="#FFD102"/>
<stop offset="1" stop-color="#F7971E"/>
</linearGradient>
<linearGradient id="paint83_linear_12_161" x1="187.359" y1="60.8619" x2="187.359" y2="72.7956" gradientUnits="userSpaceOnUse">
<stop stop-color="#FFD102"/>
<stop offset="1" stop-color="#F7971E"/>
</linearGradient>
<linearGradient id="paint84_linear_12_161" x1="187.359" y1="81.1492" x2="187.359" y2="93.0829" gradientUnits="userSpaceOnUse">
<stop stop-color="#FFD102"/>
<stop offset="1" stop-color="#F7971E"/>
</linearGradient>
<linearGradient id="paint85_linear_12_161" x1="187.359" y1="101.436" x2="187.359" y2="113.37" gradientUnits="userSpaceOnUse">
<stop stop-color="#FFD102"/>
<stop offset="1" stop-color="#F7971E"/>
</linearGradient>
<linearGradient id="paint86_linear_12_161" x1="187.359" y1="121.724" x2="187.359" y2="133.657" gradientUnits="userSpaceOnUse">
<stop stop-color="#FFD102"/>
<stop offset="1" stop-color="#F7971E"/>
</linearGradient>
<linearGradient id="paint87_linear_12_161" x1="187.359" y1="142.011" x2="187.359" y2="153.945" gradientUnits="userSpaceOnUse">
<stop stop-color="#FFD102"/>
<stop offset="1" stop-color="#F7971E"/>
</linearGradient>
<linearGradient id="paint88_linear_12_161" x1="187.359" y1="162.298" x2="187.359" y2="174.232" gradientUnits="userSpaceOnUse">
<stop stop-color="#FFD102"/>
<stop offset="1" stop-color="#F7971E"/>
</linearGradient>
<linearGradient id="paint89_linear_12_161" x1="187.359" y1="182.586" x2="187.359" y2="194.519" gradientUnits="userSpaceOnUse">
<stop stop-color="#FFD102"/>
<stop offset="1" stop-color="#F7971E"/>
</linearGradient>
<linearGradient id="paint90_linear_12_161" x1="210.033" y1="0" x2="210.033" y2="11.9337" gradientUnits="userSpaceOnUse">
<stop stop-color="#FFD102"/>
<stop offset="1" stop-color="#F7971E"/>
</linearGradient>
<linearGradient id="paint91_linear_12_161" x1="210.033" y1="20.2873" x2="210.033" y2="32.221" gradientUnits="userSpaceOnUse">
<stop stop-color="#FFD102"/>
<stop offset="1" stop-color="#F7971E"/>
</linearGradient>
<linearGradient id="paint92_linear_12_161" x1="210.033" y1="40.5746" x2="210.033" y2="52.5083" gradientUnits="userSpaceOnUse">
<stop stop-color="#FFD102"/>
<stop offset="1" stop-color="#F7971E"/>
</linearGradient>
<linearGradient id="paint93_linear_12_161" x1="210.033" y1="60.8619" x2="210.033" y2="72.7956" gradientUnits="userSpaceOnUse">
<stop stop-color="#FFD102"/>
<stop offset="1" stop-color="#F7971E"/>
</linearGradient>
<linearGradient id="paint94_linear_12_161" x1="210.033" y1="81.1492" x2="210.033" y2="93.0829" gradientUnits="userSpaceOnUse">
<stop stop-color="#FFD102"/>
<stop offset="1" stop-color="#F7971E"/>
</linearGradient>
<linearGradient id="paint95_linear_12_161" x1="210.033" y1="101.436" x2="210.033" y2="113.37" gradientUnits="userSpaceOnUse">
<stop stop-color="#FFD102"/>
<stop offset="1" stop-color="#F7971E"/>
</linearGradient>
<linearGradient id="paint96_linear_12_161" x1="210.033" y1="121.724" x2="210.033" y2="133.657" gradientUnits="userSpaceOnUse">
<stop stop-color="#FFD102"/>
<stop offset="1" stop-color="#F7971E"/>
</linearGradient>
<linearGradient id="paint97_linear_12_161" x1="210.033" y1="142.011" x2="210.033" y2="153.945" gradientUnits="userSpaceOnUse">
<stop stop-color="#FFD102"/>
<stop offset="1" stop-color="#F7971E"/>
</linearGradient>
<linearGradient id="paint98_linear_12_161" x1="210.033" y1="162.298" x2="210.033" y2="174.232" gradientUnits="userSpaceOnUse">
<stop stop-color="#FFD102"/>
<stop offset="1" stop-color="#F7971E"/>
</linearGradient>
<linearGradient id="paint99_linear_12_161" x1="210.033" y1="182.586" x2="210.033" y2="194.519" gradientUnits="userSpaceOnUse">
<stop stop-color="#FFD102"/>
<stop offset="1" stop-color="#F7971E"/>
</linearGradient>
</defs>
</svg>
