<svg width="110" height="99" viewBox="0 0 110 99" fill="none" xmlns="http://www.w3.org/2000/svg">
<rect width="6.05635" height="6.05635" fill="url(#paint0_linear_72_223)"/>
<rect y="10.2958" width="6.05635" height="6.05635" fill="url(#paint1_linear_72_223)"/>
<rect y="20.5916" width="6.05635" height="6.05635" fill="url(#paint2_linear_72_223)"/>
<rect y="30.8874" width="6.05635" height="6.05635" fill="url(#paint3_linear_72_223)"/>
<rect y="41.1832" width="6.05635" height="6.05635" fill="url(#paint4_linear_72_223)"/>
<rect y="51.479" width="6.05635" height="6.05635" fill="url(#paint5_linear_72_223)"/>
<rect y="61.7748" width="6.05635" height="6.05635" fill="url(#paint6_linear_72_223)"/>
<rect y="72.0706" width="6.05635" height="6.05635" fill="url(#paint7_linear_72_223)"/>
<rect y="82.3664" width="6.05635" height="6.05635" fill="url(#paint8_linear_72_223)"/>
<rect y="92.6622" width="6.05635" height="6.05635" fill="url(#paint9_linear_72_223)"/>
<rect x="11.5071" width="6.05635" height="6.05635" fill="url(#paint10_linear_72_223)"/>
<rect x="11.5071" y="10.2958" width="6.05635" height="6.05635" fill="url(#paint11_linear_72_223)"/>
<rect x="11.5071" y="20.5916" width="6.05635" height="6.05635" fill="url(#paint12_linear_72_223)"/>
<rect x="11.5071" y="30.8874" width="6.05635" height="6.05635" fill="url(#paint13_linear_72_223)"/>
<rect x="11.5071" y="41.1832" width="6.05635" height="6.05635" fill="url(#paint14_linear_72_223)"/>
<rect x="11.5071" y="51.479" width="6.05635" height="6.05635" fill="url(#paint15_linear_72_223)"/>
<rect x="11.5071" y="61.7748" width="6.05635" height="6.05635" fill="url(#paint16_linear_72_223)"/>
<rect x="11.5071" y="72.0706" width="6.05635" height="6.05635" fill="url(#paint17_linear_72_223)"/>
<rect x="11.5071" y="82.3664" width="6.05635" height="6.05635" fill="url(#paint18_linear_72_223)"/>
<rect x="11.5071" y="92.6622" width="6.05635" height="6.05635" fill="url(#paint19_linear_72_223)"/>
<rect x="23.0142" width="6.05635" height="6.05635" fill="url(#paint20_linear_72_223)"/>
<rect x="23.0142" y="10.2958" width="6.05635" height="6.05635" fill="url(#paint21_linear_72_223)"/>
<rect x="23.0142" y="20.5916" width="6.05635" height="6.05635" fill="url(#paint22_linear_72_223)"/>
<rect x="23.0142" y="30.8874" width="6.05635" height="6.05635" fill="url(#paint23_linear_72_223)"/>
<rect x="23.0142" y="41.1832" width="6.05635" height="6.05635" fill="url(#paint24_linear_72_223)"/>
<rect x="23.0142" y="51.479" width="6.05635" height="6.05635" fill="url(#paint25_linear_72_223)"/>
<rect x="23.0142" y="61.7748" width="6.05635" height="6.05635" fill="url(#paint26_linear_72_223)"/>
<rect x="23.0142" y="72.0706" width="6.05635" height="6.05635" fill="url(#paint27_linear_72_223)"/>
<rect x="23.0142" y="82.3664" width="6.05635" height="6.05635" fill="url(#paint28_linear_72_223)"/>
<rect x="23.0142" y="92.6622" width="6.05635" height="6.05635" fill="url(#paint29_linear_72_223)"/>
<rect x="34.5212" width="6.05635" height="6.05635" fill="url(#paint30_linear_72_223)"/>
<rect x="34.5212" y="10.2958" width="6.05635" height="6.05635" fill="url(#paint31_linear_72_223)"/>
<rect x="34.5212" y="20.5916" width="6.05635" height="6.05635" fill="url(#paint32_linear_72_223)"/>
<rect x="34.5212" y="30.8874" width="6.05635" height="6.05635" fill="url(#paint33_linear_72_223)"/>
<rect x="34.5212" y="41.1832" width="6.05635" height="6.05635" fill="url(#paint34_linear_72_223)"/>
<rect x="34.5212" y="51.479" width="6.05635" height="6.05635" fill="url(#paint35_linear_72_223)"/>
<rect x="34.5212" y="61.7748" width="6.05635" height="6.05635" fill="url(#paint36_linear_72_223)"/>
<rect x="34.5212" y="72.0706" width="6.05635" height="6.05635" fill="url(#paint37_linear_72_223)"/>
<rect x="34.5212" y="82.3664" width="6.05635" height="6.05635" fill="url(#paint38_linear_72_223)"/>
<rect x="34.5212" y="92.6622" width="6.05635" height="6.05635" fill="url(#paint39_linear_72_223)"/>
<rect x="46.0283" width="6.05635" height="6.05635" fill="url(#paint40_linear_72_223)"/>
<rect x="46.0283" y="10.2958" width="6.05635" height="6.05635" fill="url(#paint41_linear_72_223)"/>
<rect x="46.0283" y="20.5916" width="6.05635" height="6.05635" fill="url(#paint42_linear_72_223)"/>
<rect x="46.0283" y="30.8874" width="6.05635" height="6.05635" fill="url(#paint43_linear_72_223)"/>
<rect x="46.0283" y="41.1832" width="6.05635" height="6.05635" fill="url(#paint44_linear_72_223)"/>
<rect x="46.0283" y="51.479" width="6.05635" height="6.05635" fill="url(#paint45_linear_72_223)"/>
<rect x="46.0283" y="61.7748" width="6.05635" height="6.05635" fill="url(#paint46_linear_72_223)"/>
<rect x="46.0283" y="72.0706" width="6.05635" height="6.05635" fill="url(#paint47_linear_72_223)"/>
<rect x="46.0283" y="82.3664" width="6.05635" height="6.05635" fill="url(#paint48_linear_72_223)"/>
<rect x="46.0283" y="92.6622" width="6.05635" height="6.05635" fill="url(#paint49_linear_72_223)"/>
<rect x="57.5354" width="6.05635" height="6.05635" fill="url(#paint50_linear_72_223)"/>
<rect x="57.5354" y="10.2958" width="6.05635" height="6.05635" fill="url(#paint51_linear_72_223)"/>
<rect x="57.5354" y="20.5916" width="6.05635" height="6.05635" fill="url(#paint52_linear_72_223)"/>
<rect x="57.5354" y="30.8874" width="6.05635" height="6.05635" fill="url(#paint53_linear_72_223)"/>
<rect x="57.5354" y="41.1832" width="6.05635" height="6.05635" fill="url(#paint54_linear_72_223)"/>
<rect x="57.5354" y="51.479" width="6.05635" height="6.05635" fill="url(#paint55_linear_72_223)"/>
<rect x="57.5354" y="61.7748" width="6.05635" height="6.05635" fill="url(#paint56_linear_72_223)"/>
<rect x="57.5354" y="72.0706" width="6.05635" height="6.05635" fill="url(#paint57_linear_72_223)"/>
<rect x="57.5354" y="82.3664" width="6.05635" height="6.05635" fill="url(#paint58_linear_72_223)"/>
<rect x="57.5354" y="92.6622" width="6.05635" height="6.05635" fill="url(#paint59_linear_72_223)"/>
<rect x="69.0425" width="6.05635" height="6.05635" fill="url(#paint60_linear_72_223)"/>
<rect x="69.0425" y="10.2958" width="6.05635" height="6.05635" fill="url(#paint61_linear_72_223)"/>
<rect x="69.0425" y="20.5916" width="6.05635" height="6.05635" fill="url(#paint62_linear_72_223)"/>
<rect x="69.0425" y="30.8874" width="6.05635" height="6.05635" fill="url(#paint63_linear_72_223)"/>
<rect x="69.0425" y="41.1832" width="6.05635" height="6.05635" fill="url(#paint64_linear_72_223)"/>
<rect x="69.0425" y="51.479" width="6.05635" height="6.05635" fill="url(#paint65_linear_72_223)"/>
<rect x="69.0425" y="61.7748" width="6.05635" height="6.05635" fill="url(#paint66_linear_72_223)"/>
<rect x="69.0425" y="72.0706" width="6.05635" height="6.05635" fill="url(#paint67_linear_72_223)"/>
<rect x="69.0425" y="82.3664" width="6.05635" height="6.05635" fill="url(#paint68_linear_72_223)"/>
<rect x="69.0425" y="92.6622" width="6.05635" height="6.05635" fill="url(#paint69_linear_72_223)"/>
<rect x="80.5496" width="6.05635" height="6.05635" fill="url(#paint70_linear_72_223)"/>
<rect x="80.5496" y="10.2958" width="6.05635" height="6.05635" fill="url(#paint71_linear_72_223)"/>
<rect x="80.5496" y="20.5916" width="6.05635" height="6.05635" fill="url(#paint72_linear_72_223)"/>
<rect x="80.5496" y="30.8874" width="6.05635" height="6.05635" fill="url(#paint73_linear_72_223)"/>
<rect x="80.5496" y="41.1832" width="6.05635" height="6.05635" fill="url(#paint74_linear_72_223)"/>
<rect x="80.5496" y="51.479" width="6.05635" height="6.05635" fill="url(#paint75_linear_72_223)"/>
<rect x="80.5496" y="61.7748" width="6.05635" height="6.05635" fill="url(#paint76_linear_72_223)"/>
<rect x="80.5496" y="72.0706" width="6.05635" height="6.05635" fill="url(#paint77_linear_72_223)"/>
<rect x="80.5496" y="82.3664" width="6.05635" height="6.05635" fill="url(#paint78_linear_72_223)"/>
<rect x="80.5496" y="92.6622" width="6.05635" height="6.05635" fill="url(#paint79_linear_72_223)"/>
<rect x="92.0566" width="6.05635" height="6.05635" fill="url(#paint80_linear_72_223)"/>
<rect x="92.0566" y="10.2958" width="6.05635" height="6.05635" fill="url(#paint81_linear_72_223)"/>
<rect x="92.0566" y="20.5916" width="6.05635" height="6.05635" fill="url(#paint82_linear_72_223)"/>
<rect x="92.0566" y="30.8874" width="6.05635" height="6.05635" fill="url(#paint83_linear_72_223)"/>
<rect x="92.0566" y="41.1832" width="6.05635" height="6.05635" fill="url(#paint84_linear_72_223)"/>
<rect x="92.0566" y="51.479" width="6.05635" height="6.05635" fill="url(#paint85_linear_72_223)"/>
<rect x="92.0566" y="61.7748" width="6.05635" height="6.05635" fill="url(#paint86_linear_72_223)"/>
<rect x="92.0566" y="72.0706" width="6.05635" height="6.05635" fill="url(#paint87_linear_72_223)"/>
<rect x="92.0566" y="82.3664" width="6.05635" height="6.05635" fill="url(#paint88_linear_72_223)"/>
<rect x="92.0566" y="92.6622" width="6.05635" height="6.05635" fill="url(#paint89_linear_72_223)"/>
<rect x="103.564" width="6.05635" height="6.05635" fill="url(#paint90_linear_72_223)"/>
<rect x="103.564" y="10.2958" width="6.05635" height="6.05635" fill="url(#paint91_linear_72_223)"/>
<rect x="103.564" y="20.5916" width="6.05635" height="6.05635" fill="url(#paint92_linear_72_223)"/>
<rect x="103.564" y="30.8874" width="6.05635" height="6.05635" fill="url(#paint93_linear_72_223)"/>
<rect x="103.564" y="41.1832" width="6.05635" height="6.05635" fill="url(#paint94_linear_72_223)"/>
<rect x="103.564" y="51.479" width="6.05635" height="6.05635" fill="url(#paint95_linear_72_223)"/>
<rect x="103.564" y="61.7748" width="6.05635" height="6.05635" fill="url(#paint96_linear_72_223)"/>
<rect x="103.564" y="72.0706" width="6.05635" height="6.05635" fill="url(#paint97_linear_72_223)"/>
<rect x="103.564" y="82.3664" width="6.05635" height="6.05635" fill="url(#paint98_linear_72_223)"/>
<rect x="103.564" y="92.6622" width="6.05635" height="6.05635" fill="url(#paint99_linear_72_223)"/>
<defs>
<linearGradient id="paint0_linear_72_223" x1="3.02818" y1="0" x2="3.02818" y2="6.05635" gradientUnits="userSpaceOnUse">
<stop stop-color="#FFD102"/>
<stop offset="1" stop-color="#F7971E"/>
</linearGradient>
<linearGradient id="paint1_linear_72_223" x1="3.02818" y1="10.2958" x2="3.02818" y2="16.3522" gradientUnits="userSpaceOnUse">
<stop stop-color="#FFD102"/>
<stop offset="1" stop-color="#F7971E"/>
</linearGradient>
<linearGradient id="paint2_linear_72_223" x1="3.02818" y1="20.5916" x2="3.02818" y2="26.648" gradientUnits="userSpaceOnUse">
<stop stop-color="#FFD102"/>
<stop offset="1" stop-color="#F7971E"/>
</linearGradient>
<linearGradient id="paint3_linear_72_223" x1="3.02818" y1="30.8874" x2="3.02818" y2="36.9437" gradientUnits="userSpaceOnUse">
<stop stop-color="#FFD102"/>
<stop offset="1" stop-color="#F7971E"/>
</linearGradient>
<linearGradient id="paint4_linear_72_223" x1="3.02818" y1="41.1832" x2="3.02818" y2="47.2396" gradientUnits="userSpaceOnUse">
<stop stop-color="#FFD102"/>
<stop offset="1" stop-color="#F7971E"/>
</linearGradient>
<linearGradient id="paint5_linear_72_223" x1="3.02818" y1="51.479" x2="3.02818" y2="57.5354" gradientUnits="userSpaceOnUse">
<stop stop-color="#FFD102"/>
<stop offset="1" stop-color="#F7971E"/>
</linearGradient>
<linearGradient id="paint6_linear_72_223" x1="3.02818" y1="61.7748" x2="3.02818" y2="67.8311" gradientUnits="userSpaceOnUse">
<stop stop-color="#FFD102"/>
<stop offset="1" stop-color="#F7971E"/>
</linearGradient>
<linearGradient id="paint7_linear_72_223" x1="3.02818" y1="72.0706" x2="3.02818" y2="78.127" gradientUnits="userSpaceOnUse">
<stop stop-color="#FFD102"/>
<stop offset="1" stop-color="#F7971E"/>
</linearGradient>
<linearGradient id="paint8_linear_72_223" x1="3.02818" y1="82.3664" x2="3.02818" y2="88.4227" gradientUnits="userSpaceOnUse">
<stop stop-color="#FFD102"/>
<stop offset="1" stop-color="#F7971E"/>
</linearGradient>
<linearGradient id="paint9_linear_72_223" x1="3.02818" y1="92.6622" x2="3.02818" y2="98.7186" gradientUnits="userSpaceOnUse">
<stop stop-color="#FFD102"/>
<stop offset="1" stop-color="#F7971E"/>
</linearGradient>
<linearGradient id="paint10_linear_72_223" x1="14.5353" y1="0" x2="14.5353" y2="6.05635" gradientUnits="userSpaceOnUse">
<stop stop-color="#FFD102"/>
<stop offset="1" stop-color="#F7971E"/>
</linearGradient>
<linearGradient id="paint11_linear_72_223" x1="14.5353" y1="10.2958" x2="14.5353" y2="16.3522" gradientUnits="userSpaceOnUse">
<stop stop-color="#FFD102"/>
<stop offset="1" stop-color="#F7971E"/>
</linearGradient>
<linearGradient id="paint12_linear_72_223" x1="14.5353" y1="20.5916" x2="14.5353" y2="26.648" gradientUnits="userSpaceOnUse">
<stop stop-color="#FFD102"/>
<stop offset="1" stop-color="#F7971E"/>
</linearGradient>
<linearGradient id="paint13_linear_72_223" x1="14.5353" y1="30.8874" x2="14.5353" y2="36.9437" gradientUnits="userSpaceOnUse">
<stop stop-color="#FFD102"/>
<stop offset="1" stop-color="#F7971E"/>
</linearGradient>
<linearGradient id="paint14_linear_72_223" x1="14.5353" y1="41.1832" x2="14.5353" y2="47.2396" gradientUnits="userSpaceOnUse">
<stop stop-color="#FFD102"/>
<stop offset="1" stop-color="#F7971E"/>
</linearGradient>
<linearGradient id="paint15_linear_72_223" x1="14.5353" y1="51.479" x2="14.5353" y2="57.5354" gradientUnits="userSpaceOnUse">
<stop stop-color="#FFD102"/>
<stop offset="1" stop-color="#F7971E"/>
</linearGradient>
<linearGradient id="paint16_linear_72_223" x1="14.5353" y1="61.7748" x2="14.5353" y2="67.8311" gradientUnits="userSpaceOnUse">
<stop stop-color="#FFD102"/>
<stop offset="1" stop-color="#F7971E"/>
</linearGradient>
<linearGradient id="paint17_linear_72_223" x1="14.5353" y1="72.0706" x2="14.5353" y2="78.127" gradientUnits="userSpaceOnUse">
<stop stop-color="#FFD102"/>
<stop offset="1" stop-color="#F7971E"/>
</linearGradient>
<linearGradient id="paint18_linear_72_223" x1="14.5353" y1="82.3664" x2="14.5353" y2="88.4227" gradientUnits="userSpaceOnUse">
<stop stop-color="#FFD102"/>
<stop offset="1" stop-color="#F7971E"/>
</linearGradient>
<linearGradient id="paint19_linear_72_223" x1="14.5353" y1="92.6622" x2="14.5353" y2="98.7186" gradientUnits="userSpaceOnUse">
<stop stop-color="#FFD102"/>
<stop offset="1" stop-color="#F7971E"/>
</linearGradient>
<linearGradient id="paint20_linear_72_223" x1="26.0423" y1="0" x2="26.0423" y2="6.05635" gradientUnits="userSpaceOnUse">
<stop stop-color="#FFD102"/>
<stop offset="1" stop-color="#F7971E"/>
</linearGradient>
<linearGradient id="paint21_linear_72_223" x1="26.0423" y1="10.2958" x2="26.0423" y2="16.3522" gradientUnits="userSpaceOnUse">
<stop stop-color="#FFD102"/>
<stop offset="1" stop-color="#F7971E"/>
</linearGradient>
<linearGradient id="paint22_linear_72_223" x1="26.0423" y1="20.5916" x2="26.0423" y2="26.648" gradientUnits="userSpaceOnUse">
<stop stop-color="#FFD102"/>
<stop offset="1" stop-color="#F7971E"/>
</linearGradient>
<linearGradient id="paint23_linear_72_223" x1="26.0423" y1="30.8874" x2="26.0423" y2="36.9437" gradientUnits="userSpaceOnUse">
<stop stop-color="#FFD102"/>
<stop offset="1" stop-color="#F7971E"/>
</linearGradient>
<linearGradient id="paint24_linear_72_223" x1="26.0423" y1="41.1832" x2="26.0423" y2="47.2396" gradientUnits="userSpaceOnUse">
<stop stop-color="#FFD102"/>
<stop offset="1" stop-color="#F7971E"/>
</linearGradient>
<linearGradient id="paint25_linear_72_223" x1="26.0423" y1="51.479" x2="26.0423" y2="57.5354" gradientUnits="userSpaceOnUse">
<stop stop-color="#FFD102"/>
<stop offset="1" stop-color="#F7971E"/>
</linearGradient>
<linearGradient id="paint26_linear_72_223" x1="26.0423" y1="61.7748" x2="26.0423" y2="67.8311" gradientUnits="userSpaceOnUse">
<stop stop-color="#FFD102"/>
<stop offset="1" stop-color="#F7971E"/>
</linearGradient>
<linearGradient id="paint27_linear_72_223" x1="26.0423" y1="72.0706" x2="26.0423" y2="78.127" gradientUnits="userSpaceOnUse">
<stop stop-color="#FFD102"/>
<stop offset="1" stop-color="#F7971E"/>
</linearGradient>
<linearGradient id="paint28_linear_72_223" x1="26.0423" y1="82.3664" x2="26.0423" y2="88.4227" gradientUnits="userSpaceOnUse">
<stop stop-color="#FFD102"/>
<stop offset="1" stop-color="#F7971E"/>
</linearGradient>
<linearGradient id="paint29_linear_72_223" x1="26.0423" y1="92.6622" x2="26.0423" y2="98.7186" gradientUnits="userSpaceOnUse">
<stop stop-color="#FFD102"/>
<stop offset="1" stop-color="#F7971E"/>
</linearGradient>
<linearGradient id="paint30_linear_72_223" x1="37.5494" y1="0" x2="37.5494" y2="6.05635" gradientUnits="userSpaceOnUse">
<stop stop-color="#FFD102"/>
<stop offset="1" stop-color="#F7971E"/>
</linearGradient>
<linearGradient id="paint31_linear_72_223" x1="37.5494" y1="10.2958" x2="37.5494" y2="16.3522" gradientUnits="userSpaceOnUse">
<stop stop-color="#FFD102"/>
<stop offset="1" stop-color="#F7971E"/>
</linearGradient>
<linearGradient id="paint32_linear_72_223" x1="37.5494" y1="20.5916" x2="37.5494" y2="26.648" gradientUnits="userSpaceOnUse">
<stop stop-color="#FFD102"/>
<stop offset="1" stop-color="#F7971E"/>
</linearGradient>
<linearGradient id="paint33_linear_72_223" x1="37.5494" y1="30.8874" x2="37.5494" y2="36.9437" gradientUnits="userSpaceOnUse">
<stop stop-color="#FFD102"/>
<stop offset="1" stop-color="#F7971E"/>
</linearGradient>
<linearGradient id="paint34_linear_72_223" x1="37.5494" y1="41.1832" x2="37.5494" y2="47.2396" gradientUnits="userSpaceOnUse">
<stop stop-color="#FFD102"/>
<stop offset="1" stop-color="#F7971E"/>
</linearGradient>
<linearGradient id="paint35_linear_72_223" x1="37.5494" y1="51.479" x2="37.5494" y2="57.5354" gradientUnits="userSpaceOnUse">
<stop stop-color="#FFD102"/>
<stop offset="1" stop-color="#F7971E"/>
</linearGradient>
<linearGradient id="paint36_linear_72_223" x1="37.5494" y1="61.7748" x2="37.5494" y2="67.8311" gradientUnits="userSpaceOnUse">
<stop stop-color="#FFD102"/>
<stop offset="1" stop-color="#F7971E"/>
</linearGradient>
<linearGradient id="paint37_linear_72_223" x1="37.5494" y1="72.0706" x2="37.5494" y2="78.127" gradientUnits="userSpaceOnUse">
<stop stop-color="#FFD102"/>
<stop offset="1" stop-color="#F7971E"/>
</linearGradient>
<linearGradient id="paint38_linear_72_223" x1="37.5494" y1="82.3664" x2="37.5494" y2="88.4227" gradientUnits="userSpaceOnUse">
<stop stop-color="#FFD102"/>
<stop offset="1" stop-color="#F7971E"/>
</linearGradient>
<linearGradient id="paint39_linear_72_223" x1="37.5494" y1="92.6622" x2="37.5494" y2="98.7186" gradientUnits="userSpaceOnUse">
<stop stop-color="#FFD102"/>
<stop offset="1" stop-color="#F7971E"/>
</linearGradient>
<linearGradient id="paint40_linear_72_223" x1="49.0565" y1="0" x2="49.0565" y2="6.05635" gradientUnits="userSpaceOnUse">
<stop stop-color="#FFD102"/>
<stop offset="1" stop-color="#F7971E"/>
</linearGradient>
<linearGradient id="paint41_linear_72_223" x1="49.0565" y1="10.2958" x2="49.0565" y2="16.3522" gradientUnits="userSpaceOnUse">
<stop stop-color="#FFD102"/>
<stop offset="1" stop-color="#F7971E"/>
</linearGradient>
<linearGradient id="paint42_linear_72_223" x1="49.0565" y1="20.5916" x2="49.0565" y2="26.648" gradientUnits="userSpaceOnUse">
<stop stop-color="#FFD102"/>
<stop offset="1" stop-color="#F7971E"/>
</linearGradient>
<linearGradient id="paint43_linear_72_223" x1="49.0565" y1="30.8874" x2="49.0565" y2="36.9437" gradientUnits="userSpaceOnUse">
<stop stop-color="#FFD102"/>
<stop offset="1" stop-color="#F7971E"/>
</linearGradient>
<linearGradient id="paint44_linear_72_223" x1="49.0565" y1="41.1832" x2="49.0565" y2="47.2396" gradientUnits="userSpaceOnUse">
<stop stop-color="#FFD102"/>
<stop offset="1" stop-color="#F7971E"/>
</linearGradient>
<linearGradient id="paint45_linear_72_223" x1="49.0565" y1="51.479" x2="49.0565" y2="57.5354" gradientUnits="userSpaceOnUse">
<stop stop-color="#FFD102"/>
<stop offset="1" stop-color="#F7971E"/>
</linearGradient>
<linearGradient id="paint46_linear_72_223" x1="49.0565" y1="61.7748" x2="49.0565" y2="67.8311" gradientUnits="userSpaceOnUse">
<stop stop-color="#FFD102"/>
<stop offset="1" stop-color="#F7971E"/>
</linearGradient>
<linearGradient id="paint47_linear_72_223" x1="49.0565" y1="72.0706" x2="49.0565" y2="78.127" gradientUnits="userSpaceOnUse">
<stop stop-color="#FFD102"/>
<stop offset="1" stop-color="#F7971E"/>
</linearGradient>
<linearGradient id="paint48_linear_72_223" x1="49.0565" y1="82.3664" x2="49.0565" y2="88.4227" gradientUnits="userSpaceOnUse">
<stop stop-color="#FFD102"/>
<stop offset="1" stop-color="#F7971E"/>
</linearGradient>
<linearGradient id="paint49_linear_72_223" x1="49.0565" y1="92.6622" x2="49.0565" y2="98.7186" gradientUnits="userSpaceOnUse">
<stop stop-color="#FFD102"/>
<stop offset="1" stop-color="#F7971E"/>
</linearGradient>
<linearGradient id="paint50_linear_72_223" x1="60.5636" y1="0" x2="60.5636" y2="6.05635" gradientUnits="userSpaceOnUse">
<stop stop-color="#FFD102"/>
<stop offset="1" stop-color="#F7971E"/>
</linearGradient>
<linearGradient id="paint51_linear_72_223" x1="60.5636" y1="10.2958" x2="60.5636" y2="16.3522" gradientUnits="userSpaceOnUse">
<stop stop-color="#FFD102"/>
<stop offset="1" stop-color="#F7971E"/>
</linearGradient>
<linearGradient id="paint52_linear_72_223" x1="60.5636" y1="20.5916" x2="60.5636" y2="26.648" gradientUnits="userSpaceOnUse">
<stop stop-color="#FFD102"/>
<stop offset="1" stop-color="#F7971E"/>
</linearGradient>
<linearGradient id="paint53_linear_72_223" x1="60.5636" y1="30.8874" x2="60.5636" y2="36.9437" gradientUnits="userSpaceOnUse">
<stop stop-color="#FFD102"/>
<stop offset="1" stop-color="#F7971E"/>
</linearGradient>
<linearGradient id="paint54_linear_72_223" x1="60.5636" y1="41.1832" x2="60.5636" y2="47.2396" gradientUnits="userSpaceOnUse">
<stop stop-color="#FFD102"/>
<stop offset="1" stop-color="#F7971E"/>
</linearGradient>
<linearGradient id="paint55_linear_72_223" x1="60.5636" y1="51.479" x2="60.5636" y2="57.5354" gradientUnits="userSpaceOnUse">
<stop stop-color="#FFD102"/>
<stop offset="1" stop-color="#F7971E"/>
</linearGradient>
<linearGradient id="paint56_linear_72_223" x1="60.5636" y1="61.7748" x2="60.5636" y2="67.8311" gradientUnits="userSpaceOnUse">
<stop stop-color="#FFD102"/>
<stop offset="1" stop-color="#F7971E"/>
</linearGradient>
<linearGradient id="paint57_linear_72_223" x1="60.5636" y1="72.0706" x2="60.5636" y2="78.127" gradientUnits="userSpaceOnUse">
<stop stop-color="#FFD102"/>
<stop offset="1" stop-color="#F7971E"/>
</linearGradient>
<linearGradient id="paint58_linear_72_223" x1="60.5636" y1="82.3664" x2="60.5636" y2="88.4227" gradientUnits="userSpaceOnUse">
<stop stop-color="#FFD102"/>
<stop offset="1" stop-color="#F7971E"/>
</linearGradient>
<linearGradient id="paint59_linear_72_223" x1="60.5636" y1="92.6622" x2="60.5636" y2="98.7186" gradientUnits="userSpaceOnUse">
<stop stop-color="#FFD102"/>
<stop offset="1" stop-color="#F7971E"/>
</linearGradient>
<linearGradient id="paint60_linear_72_223" x1="72.0707" y1="0" x2="72.0707" y2="6.05635" gradientUnits="userSpaceOnUse">
<stop stop-color="#FFD102"/>
<stop offset="1" stop-color="#F7971E"/>
</linearGradient>
<linearGradient id="paint61_linear_72_223" x1="72.0707" y1="10.2958" x2="72.0707" y2="16.3522" gradientUnits="userSpaceOnUse">
<stop stop-color="#FFD102"/>
<stop offset="1" stop-color="#F7971E"/>
</linearGradient>
<linearGradient id="paint62_linear_72_223" x1="72.0707" y1="20.5916" x2="72.0707" y2="26.648" gradientUnits="userSpaceOnUse">
<stop stop-color="#FFD102"/>
<stop offset="1" stop-color="#F7971E"/>
</linearGradient>
<linearGradient id="paint63_linear_72_223" x1="72.0707" y1="30.8874" x2="72.0707" y2="36.9437" gradientUnits="userSpaceOnUse">
<stop stop-color="#FFD102"/>
<stop offset="1" stop-color="#F7971E"/>
</linearGradient>
<linearGradient id="paint64_linear_72_223" x1="72.0707" y1="41.1832" x2="72.0707" y2="47.2396" gradientUnits="userSpaceOnUse">
<stop stop-color="#FFD102"/>
<stop offset="1" stop-color="#F7971E"/>
</linearGradient>
<linearGradient id="paint65_linear_72_223" x1="72.0707" y1="51.479" x2="72.0707" y2="57.5354" gradientUnits="userSpaceOnUse">
<stop stop-color="#FFD102"/>
<stop offset="1" stop-color="#F7971E"/>
</linearGradient>
<linearGradient id="paint66_linear_72_223" x1="72.0707" y1="61.7748" x2="72.0707" y2="67.8311" gradientUnits="userSpaceOnUse">
<stop stop-color="#FFD102"/>
<stop offset="1" stop-color="#F7971E"/>
</linearGradient>
<linearGradient id="paint67_linear_72_223" x1="72.0707" y1="72.0706" x2="72.0707" y2="78.127" gradientUnits="userSpaceOnUse">
<stop stop-color="#FFD102"/>
<stop offset="1" stop-color="#F7971E"/>
</linearGradient>
<linearGradient id="paint68_linear_72_223" x1="72.0707" y1="82.3664" x2="72.0707" y2="88.4227" gradientUnits="userSpaceOnUse">
<stop stop-color="#FFD102"/>
<stop offset="1" stop-color="#F7971E"/>
</linearGradient>
<linearGradient id="paint69_linear_72_223" x1="72.0707" y1="92.6622" x2="72.0707" y2="98.7186" gradientUnits="userSpaceOnUse">
<stop stop-color="#FFD102"/>
<stop offset="1" stop-color="#F7971E"/>
</linearGradient>
<linearGradient id="paint70_linear_72_223" x1="83.5777" y1="0" x2="83.5777" y2="6.05635" gradientUnits="userSpaceOnUse">
<stop stop-color="#FFD102"/>
<stop offset="1" stop-color="#F7971E"/>
</linearGradient>
<linearGradient id="paint71_linear_72_223" x1="83.5777" y1="10.2958" x2="83.5777" y2="16.3522" gradientUnits="userSpaceOnUse">
<stop stop-color="#FFD102"/>
<stop offset="1" stop-color="#F7971E"/>
</linearGradient>
<linearGradient id="paint72_linear_72_223" x1="83.5777" y1="20.5916" x2="83.5777" y2="26.648" gradientUnits="userSpaceOnUse">
<stop stop-color="#FFD102"/>
<stop offset="1" stop-color="#F7971E"/>
</linearGradient>
<linearGradient id="paint73_linear_72_223" x1="83.5777" y1="30.8874" x2="83.5777" y2="36.9437" gradientUnits="userSpaceOnUse">
<stop stop-color="#FFD102"/>
<stop offset="1" stop-color="#F7971E"/>
</linearGradient>
<linearGradient id="paint74_linear_72_223" x1="83.5777" y1="41.1832" x2="83.5777" y2="47.2396" gradientUnits="userSpaceOnUse">
<stop stop-color="#FFD102"/>
<stop offset="1" stop-color="#F7971E"/>
</linearGradient>
<linearGradient id="paint75_linear_72_223" x1="83.5777" y1="51.479" x2="83.5777" y2="57.5354" gradientUnits="userSpaceOnUse">
<stop stop-color="#FFD102"/>
<stop offset="1" stop-color="#F7971E"/>
</linearGradient>
<linearGradient id="paint76_linear_72_223" x1="83.5777" y1="61.7748" x2="83.5777" y2="67.8311" gradientUnits="userSpaceOnUse">
<stop stop-color="#FFD102"/>
<stop offset="1" stop-color="#F7971E"/>
</linearGradient>
<linearGradient id="paint77_linear_72_223" x1="83.5777" y1="72.0706" x2="83.5777" y2="78.127" gradientUnits="userSpaceOnUse">
<stop stop-color="#FFD102"/>
<stop offset="1" stop-color="#F7971E"/>
</linearGradient>
<linearGradient id="paint78_linear_72_223" x1="83.5777" y1="82.3664" x2="83.5777" y2="88.4227" gradientUnits="userSpaceOnUse">
<stop stop-color="#FFD102"/>
<stop offset="1" stop-color="#F7971E"/>
</linearGradient>
<linearGradient id="paint79_linear_72_223" x1="83.5777" y1="92.6622" x2="83.5777" y2="98.7186" gradientUnits="userSpaceOnUse">
<stop stop-color="#FFD102"/>
<stop offset="1" stop-color="#F7971E"/>
</linearGradient>
<linearGradient id="paint80_linear_72_223" x1="95.0848" y1="0" x2="95.0848" y2="6.05635" gradientUnits="userSpaceOnUse">
<stop stop-color="#FFD102"/>
<stop offset="1" stop-color="#F7971E"/>
</linearGradient>
<linearGradient id="paint81_linear_72_223" x1="95.0848" y1="10.2958" x2="95.0848" y2="16.3522" gradientUnits="userSpaceOnUse">
<stop stop-color="#FFD102"/>
<stop offset="1" stop-color="#F7971E"/>
</linearGradient>
<linearGradient id="paint82_linear_72_223" x1="95.0848" y1="20.5916" x2="95.0848" y2="26.648" gradientUnits="userSpaceOnUse">
<stop stop-color="#FFD102"/>
<stop offset="1" stop-color="#F7971E"/>
</linearGradient>
<linearGradient id="paint83_linear_72_223" x1="95.0848" y1="30.8874" x2="95.0848" y2="36.9437" gradientUnits="userSpaceOnUse">
<stop stop-color="#FFD102"/>
<stop offset="1" stop-color="#F7971E"/>
</linearGradient>
<linearGradient id="paint84_linear_72_223" x1="95.0848" y1="41.1832" x2="95.0848" y2="47.2396" gradientUnits="userSpaceOnUse">
<stop stop-color="#FFD102"/>
<stop offset="1" stop-color="#F7971E"/>
</linearGradient>
<linearGradient id="paint85_linear_72_223" x1="95.0848" y1="51.479" x2="95.0848" y2="57.5354" gradientUnits="userSpaceOnUse">
<stop stop-color="#FFD102"/>
<stop offset="1" stop-color="#F7971E"/>
</linearGradient>
<linearGradient id="paint86_linear_72_223" x1="95.0848" y1="61.7748" x2="95.0848" y2="67.8311" gradientUnits="userSpaceOnUse">
<stop stop-color="#FFD102"/>
<stop offset="1" stop-color="#F7971E"/>
</linearGradient>
<linearGradient id="paint87_linear_72_223" x1="95.0848" y1="72.0706" x2="95.0848" y2="78.127" gradientUnits="userSpaceOnUse">
<stop stop-color="#FFD102"/>
<stop offset="1" stop-color="#F7971E"/>
</linearGradient>
<linearGradient id="paint88_linear_72_223" x1="95.0848" y1="82.3664" x2="95.0848" y2="88.4227" gradientUnits="userSpaceOnUse">
<stop stop-color="#FFD102"/>
<stop offset="1" stop-color="#F7971E"/>
</linearGradient>
<linearGradient id="paint89_linear_72_223" x1="95.0848" y1="92.6622" x2="95.0848" y2="98.7186" gradientUnits="userSpaceOnUse">
<stop stop-color="#FFD102"/>
<stop offset="1" stop-color="#F7971E"/>
</linearGradient>
<linearGradient id="paint90_linear_72_223" x1="106.592" y1="0" x2="106.592" y2="6.05635" gradientUnits="userSpaceOnUse">
<stop stop-color="#FFD102"/>
<stop offset="1" stop-color="#F7971E"/>
</linearGradient>
<linearGradient id="paint91_linear_72_223" x1="106.592" y1="10.2958" x2="106.592" y2="16.3522" gradientUnits="userSpaceOnUse">
<stop stop-color="#FFD102"/>
<stop offset="1" stop-color="#F7971E"/>
</linearGradient>
<linearGradient id="paint92_linear_72_223" x1="106.592" y1="20.5916" x2="106.592" y2="26.648" gradientUnits="userSpaceOnUse">
<stop stop-color="#FFD102"/>
<stop offset="1" stop-color="#F7971E"/>
</linearGradient>
<linearGradient id="paint93_linear_72_223" x1="106.592" y1="30.8874" x2="106.592" y2="36.9437" gradientUnits="userSpaceOnUse">
<stop stop-color="#FFD102"/>
<stop offset="1" stop-color="#F7971E"/>
</linearGradient>
<linearGradient id="paint94_linear_72_223" x1="106.592" y1="41.1832" x2="106.592" y2="47.2396" gradientUnits="userSpaceOnUse">
<stop stop-color="#FFD102"/>
<stop offset="1" stop-color="#F7971E"/>
</linearGradient>
<linearGradient id="paint95_linear_72_223" x1="106.592" y1="51.479" x2="106.592" y2="57.5354" gradientUnits="userSpaceOnUse">
<stop stop-color="#FFD102"/>
<stop offset="1" stop-color="#F7971E"/>
</linearGradient>
<linearGradient id="paint96_linear_72_223" x1="106.592" y1="61.7748" x2="106.592" y2="67.8311" gradientUnits="userSpaceOnUse">
<stop stop-color="#FFD102"/>
<stop offset="1" stop-color="#F7971E"/>
</linearGradient>
<linearGradient id="paint97_linear_72_223" x1="106.592" y1="72.0706" x2="106.592" y2="78.127" gradientUnits="userSpaceOnUse">
<stop stop-color="#FFD102"/>
<stop offset="1" stop-color="#F7971E"/>
</linearGradient>
<linearGradient id="paint98_linear_72_223" x1="106.592" y1="82.3664" x2="106.592" y2="88.4227" gradientUnits="userSpaceOnUse">
<stop stop-color="#FFD102"/>
<stop offset="1" stop-color="#F7971E"/>
</linearGradient>
<linearGradient id="paint99_linear_72_223" x1="106.592" y1="92.6622" x2="106.592" y2="98.7186" gradientUnits="userSpaceOnUse">
<stop stop-color="#FFD102"/>
<stop offset="1" stop-color="#F7971E"/>
</linearGradient>
</defs>
</svg>
